#!OML:ASF H:\Terrain\Patient Classification 1\Terrain2\Thursday\justin.ASF
:FULLY-SPECIFIED
:DEGREES
2825
root -13.0507 17.8007 3.74139 1260.02 2.03109 -178.382
lowerback 7.42017 0.571647 -0.759817
upperback 3.02384 0.978072 2.02575
thorax -1.08469 0.575216 2.43174
lowerneck -13.2407 -4.71016 -9.11673
upperneck 38.2022 -1.23863 3.40008
head 15.9781 0.0220588 3.2863
rclavicle 4.57205e-015 2.38542e-014
rhumerus -30.536 -10.0608 -80.1035
rradius 30.1452
rwrist -9.219
rhand -19.2291 11.4372
rfingers 7.12502
rthumb 7.084 -18.4242
lclavicle 4.57205e-015 2.38542e-014
lhumerus -32.7258 4.61116 85.2442
lradius 35.003
lwrist 1.86378
lhand -13.1123 28.6594
lfingers 7.12502
lthumb 12.985 58.2353
rfemur -15.4079 -8.22809 21.8562
rtibia 65.986
rfoot -12.0586 -10.0364
rtoes 9.5324
lfemur -10.2115 5.92701 -19.9958
ltibia 16.8277
lfoot -0.160237 -17.88
ltoes 7.64117
2826
root -13.0493 17.7939 3.66864 1260.03 1.90273 -178.331
lowerback 7.40854 0.467412 -0.767603
upperback 3.02744 0.840916 2.06185
thorax -1.06847 0.507 2.48504
lowerneck -13.5336 -4.59771 -8.96626
upperneck 38.4642 -1.01185 3.3465
head 16.1615 0.136397 3.29292
rclavicle -1.73937e-015 -4.77083e-015
rhumerus -30.3778 -9.98964 -80.2344
rradius 30.3183
rwrist -9.40547
rhand -19.0415 11.6368
rfingers 7.12502
rthumb 7.26505 -18.2185
lclavicle -1.73937e-015 -4.77083e-015
lhumerus -32.6999 4.28363 85.3915
lradius 35.4318
lwrist 3.55179
lhand -12.2866 28.0786
lfingers 7.12502
lthumb 13.7808 57.6022
rfemur -15.9817 -8.02672 22.1027
rtibia 65.5704
rfoot -12.4408 -9.42829
rtoes 11.182
lfemur -10.2103 5.77304 -19.9874
ltibia 17.3484
lfoot -1.34556 -17.7574
ltoes 4.08211
2827
root -13.0473 17.7874 3.59585 1260.13 1.72668 -178.369
lowerback 7.24726 0.450973 -0.753596
upperback 3.0456 0.816359 2.02133
thorax -0.958596 0.493022 2.43889
lowerneck -13.5642 -4.6501 -9.00123
upperneck 38.5367 -1.10234 3.45946
head 16.2161 0.11208 3.33885
rclavicle -5.56597e-015 -9.54166e-015
rhumerus -30.3049 -10.0103 -80.3538
rradius 30.6643
rwrist -9.82997
rhand -18.9256 11.8734
rfingers 7.12502
rthumb 7.37694 -17.978
lclavicle -5.56597e-015 -9.54166e-015
lhumerus -32.49 3.68703 85.5643
lradius 35.8499
lwrist 4.83898
lhand -12.8363 27.8534
lfingers 7.12502
lthumb 13.251 57.4122
rfemur -16.5917 -7.9254 22.2413
rtibia 64.9455
rfoot -13.6987 -8.59259
rtoes 8.17058
lfemur -10.2582 5.44906 -19.9969
ltibia 17.871
lfoot -1.73995 -17.4879
ltoes 5.33788
2828
root -13.0432 17.7766 3.52441 1260.32 1.64666 -178.377
lowerback 7.04048 0.419415 -0.839017
upperback 3.04413 0.764456 2.03405
thorax -0.844122 0.463795 2.50613
lowerneck -13.0842 -4.73245 -9.47294
upperneck 38.1202 -1.38063 3.8794
head 15.9206 -0.027062 3.52984
rclavicle -3.13086e-015 -1.43125e-014
rhumerus -30.2451 -9.60379 -80.6152
rradius 31.1421
rwrist -10.5
rhand -19.0649 12.1571
rfingers 7.12502
rthumb 7.24248 -17.6989
lclavicle -3.13086e-015 -1.43125e-014
lhumerus -32.2845 3.481 85.5222
lradius 36.2169
lwrist 5.38184
lhand -13.9625 27.2946
lfingers 7.12502
lthumb 12.1653 56.9209
rfemur -17.303 -7.86136 22.3834
rtibia 64.161
rfoot -14.8921 -7.6123
rtoes 5.61776
lfemur -10.4103 5.37471 -19.9715
ltibia 18.3746
lfoot -1.909 -17.3762
ltoes 8.28469
2829
root -13.0376 17.7718 3.45381 1260.47 1.54533 -178.343
lowerback 6.91151 0.307352 -0.932432
upperback 2.99579 0.604011 2.06246
thorax -0.815413 0.380319 2.60115
lowerneck -13.7378 -4.64911 -9.08887
upperneck 38.6808 -1.10177 3.59934
head 16.3372 0.114498 3.42566
rclavicle 4.96962e-016 -1.98785e-015
rhumerus -30.1252 -9.15044 -80.9523
rradius 31.4381
rwrist -10.8406
rhand -18.991 12.3147
rfingers 7.12502
rthumb 7.31381 -17.5389
lclavicle 4.96962e-016 -1.98785e-015
lhumerus -32.0979 3.5102 85.3445
lradius 36.4097
lwrist 5.88794
lhand -16.1042 24.8016
lfingers 7.12502
lthumb 10.0996 54.5392
rfemur -17.9067 -7.8082 22.5582
rtibia 63.1863
rfoot -15.7888 -6.82013
rtoes 3.5707
lfemur -10.5738 5.31621 -19.9482
ltibia 18.7999
lfoot -2.69486 -17.4544
ltoes 7.96859
